<svg xmlns="http://www.w3.org/2000/svg" viewBox="0 0 1200 750" role="img" aria-label="Private overview preview">
  <defs>
    <linearGradient id="bg" x1="0" x2="1" y1="0" y2="1">
      <stop offset="0" stop-color="#FFFFFF"/>
      <stop offset="1" stop-color="#EAF8EF"/>
    </linearGradient>
    <linearGradient id="green" x1="0" x2="1" y1="0" y2="1">
      <stop offset="0" stop-color="#1E9447"/>
      <stop offset="1" stop-color="#16763A"/>
    </linearGradient>
    <filter id="shadow" x="-20%" y="-20%" width="140%" height="140%">
      <feDropShadow dx="0" dy="18" stdDeviation="18" flood-color="#16763A" flood-opacity=".16"/>
    </filter>
  </defs>
  <rect width="1200" height="750" fill="url(#bg)"/>
  <circle cx="1030" cy="120" r="190" fill="#DFF4E6"/>
  <circle cx="120" cy="650" r="220" fill="#DFF4E6"/>
  <g filter="url(#shadow)">
    <rect x="120" y="110" width="960" height="530" rx="34" fill="#FFFFFF"/>
    <rect x="160" y="155" width="430" height="330" rx="28" fill="#F5FBF7"/>
    <rect x="630" y="155" width="390" height="48" rx="24" fill="#EAF8EF"/>
    <rect x="630" y="232" width="320" height="28" rx="14" fill="#D9E9DE"/>
    <rect x="630" y="285" width="350" height="28" rx="14" fill="#D9E9DE"/>
    <rect x="630" y="338" width="260" height="28" rx="14" fill="#D9E9DE"/>
    <rect x="630" y="430" width="220" height="72" rx="36" fill="url(#green)"/>
    <circle cx="375" cy="302" r="118" fill="url(#green)"/>
    <path d="M371 418c0-63 37-114 101-142 6-3 12 2 11 8-7 78-54 126-112 134Z" fill="#FFFFFF"/>
    <path d="M364 417c-30-60-78-90-106-102-6-3-7-11-.1-14 61-33 127-3 160 57" stroke="#DDF6E6" stroke-width="18" stroke-linecap="round"/>
    <path d="M376 427V178" stroke="#FFFFFF" stroke-width="18" stroke-linecap="round"/>
    <path d="M376 178l36 36M376 178l-36 36" stroke="#FFFFFF" stroke-width="18" stroke-linecap="round" stroke-linejoin="round"/>
    <rect x="185" y="530" width="820" height="44" rx="22" fill="#F5FBF7"/>
  </g>
</svg>
