<svg xmlns="http://www.w3.org/2000/svg" viewBox="0 0 1280 720" role="img" aria-labelledby="title desc">
  <title id="title">Saleh Basahel private overview video poster</title>
  <desc id="desc">A clean green and white branded video poster with a play button.</desc>
  <defs>
    <linearGradient id="bg" x1="0" y1="0" x2="1" y2="1">
      <stop offset="0" stop-color="#eef8f1"/>
      <stop offset="1" stop-color="#ffffff"/>
    </linearGradient>
    <linearGradient id="green" x1="0" y1="0" x2="1" y2="1">
      <stop offset="0" stop-color="#1E9447"/>
      <stop offset="1" stop-color="#16763A"/>
    </linearGradient>
    <filter id="shadow" x="-20%" y="-20%" width="140%" height="140%">
      <feDropShadow dx="0" dy="24" stdDeviation="28" flood-color="#16763A" flood-opacity="0.22"/>
    </filter>
  </defs>
  <rect width="1280" height="720" fill="url(#bg)"/>
  <circle cx="1050" cy="90" r="230" fill="#1E9447" opacity="0.08"/>
  <circle cx="170" cy="680" r="260" fill="#1E9447" opacity="0.07"/>
  <rect x="240" y="150" width="800" height="420" rx="34" fill="#fff" filter="url(#shadow)"/>
  <rect x="300" y="210" width="250" height="220" rx="18" fill="#EAF8EF"/>
  <g transform="translate(365 246)">
    <circle cx="60" cy="60" r="58" fill="url(#green)"/>
    <path d="M58 102c0-31 18-56 50-70 3-1 6 1 6 4-4 38-27 62-56 66Z" fill="#fff"/>
    <path d="M55 101C41 72 18 58 4 52c-3-1-3-5 0-7 30-16 62-1 78 28" fill="none" stroke="#DDF6E6" stroke-width="9" stroke-linecap="round"/>
    <path d="M60 106V20" stroke="#fff" stroke-width="9" stroke-linecap="round"/>
    <path d="M60 20l18 18M60 20 42 38" stroke="#fff" stroke-width="9" stroke-linecap="round" stroke-linejoin="round"/>
  </g>
  <g fill="#16763A" opacity="0.18">
    <rect x="610" y="235" width="360" height="22" rx="11"/>
    <rect x="610" y="285" width="300" height="18" rx="9"/>
    <rect x="610" y="325" width="250" height="18" rx="9"/>
    <rect x="610" y="365" width="310" height="18" rx="9"/>
  </g>
  <rect x="610" y="420" width="145" height="34" rx="17" fill="url(#green)"/>
  <circle cx="640" cy="360" r="78" fill="url(#green)" filter="url(#shadow)"/>
  <path d="M620 318v84l70-42Z" fill="#fff"/>
</svg>
